<?xml version="1.0" encoding="UTF-8"?>
<svg version="1.1" xmlns="http://www.w3.org/2000/svg" width="101" height="100">
<path d="M0 0 C4.75 1.875 4.75 1.875 7 3 C8.0725 2.525625 9.145 2.05125 10.25 1.5625 C18.90989867 -1.83230601 28.8849468 -0.94048561 37.34375 2.6171875 C48.08648349 8.20972817 56.85728898 16.08146121 61.5 27.4375 C64.25284519 36.17532559 63.7857042 44.02625227 60.3125 52.4921875 C56.11695576 60.50867382 49.30795082 64.10753556 41 67 C-3.00466517 80.73685852 -3.00466517 80.73685852 -19.1875 74.4375 C-24.60739827 71.48596625 -28.64121048 66.67817205 -31 61 C-31.98611153 54.25774905 -31.07250164 48.50985516 -27 43 C-22.54953616 38.10545517 -18.51990948 35.22248303 -12 34 C-11.77754607 32.39773045 -11.57253331 30.79303233 -11.375 29.1875 C-11.25898438 28.29417969 -11.14296875 27.40085937 -11.0234375 26.48046875 C-10.76499257 23.74309609 -10.76499257 23.74309609 -13 21 C-13.83130023 16.63567378 -12.72663697 14.12599296 -10.4375 10.5 C-7.43370427 6.26314253 -4.08398518 3.18550844 0 0 Z " fill="#020101" transform="translate(35,13)"/>
<path d="M0 0 C9.65967016 3.40929535 9.65967016 3.40929535 12.1640625 8.25 C14.84620407 15.29318093 16.45491308 22.63742671 18 30 C18.33 30 18.66 30 19 30 C19.20496094 29.37351562 19.40992188 28.74703125 19.62109375 28.1015625 C19.89050781 27.28429687 20.15992188 26.46703125 20.4375 25.625 C20.70433594 24.81289063 20.97117188 24.00078125 21.24609375 23.1640625 C22 21 22 21 23 19 C25.23828125 18.734375 25.23828125 18.734375 28 19 C30.16796875 20.828125 30.16796875 20.828125 32.1875 23.25 C32.86167969 24.03890625 33.53585938 24.8278125 34.23046875 25.640625 C37.66243213 30.21657617 38.42961626 33.20018047 38 39 C36 41 36 41 32.9609375 41.1953125 C31.77757813 41.17210937 30.59421875 41.14890625 29.375 41.125 C27.59222656 41.09792969 27.59222656 41.09792969 25.7734375 41.0703125 C24.40058594 41.03550781 24.40058594 41.03550781 23 41 C23.54140625 41.83144531 23.54140625 41.83144531 24.09375 42.6796875 C24.78984375 43.76636719 24.78984375 43.76636719 25.5 44.875 C26.19609375 45.95394531 26.19609375 45.95394531 26.90625 47.0546875 C28 49 28 49 28 51 C24.4210842 52.03677778 20.83630603 53.05160999 17.25 54.0625 C16.23421875 54.35705078 15.2184375 54.65160156 14.171875 54.95507812 C13.1921875 55.22900391 12.2125 55.50292969 11.203125 55.78515625 C10.30239258 56.04176025 9.40166016 56.29836426 8.47363281 56.56274414 C5.91814548 57.01446915 4.42927612 56.83537352 2 56 C2.7115625 55.1028125 2.7115625 55.1028125 3.4375 54.1875 C6.73883084 49.56563682 6.59710897 44.46781218 6 39 C3.91389382 34.49401066 1.22394285 31.86337949 -3.1328125 29.62890625 C-6.39711098 28.52942496 -8.76428455 29.02318024 -12 30 C-14.56338689 31.47993156 -14.56338689 31.47993156 -16 34 C-16.64528897 38.35570056 -16.46065641 40.30901539 -14 44 C-11.51888821 47.72166769 -11.28130764 49.60799111 -12 54 C-13.875 56.9375 -13.875 56.9375 -17 59 C-23.1546696 60.09162214 -28.59586095 59.17890532 -34 56 C-38.61715807 51.50276812 -40.1739668 48.13710945 -40.3125 41.75 C-40.25820556 36.27229429 -39.89918033 33.10440035 -36 29 C-32.67759168 25.75310096 -30.1874892 23.97633337 -25.75 22.875 C-23.64820054 22.31641541 -23.64820054 22.31641541 -22 21 C-21.12752817 18.16775476 -20.80884335 15.46642931 -20.48828125 12.5234375 C-20 10 -20 10 -17.5 8.125 C-16.675 7.75375 -15.85 7.3825 -15 7 C-13.65310085 4.42900598 -13.65310085 4.42900598 -13 2 C-12.34 2 -11.68 2 -11 2 C-10.01 3.98 -9.02 5.96 -8 8 C-6.00045254 8.04254356 -3.99958364 8.04080783 -2 8 C-0.03177114 6.03177114 -0.33751619 2.65191291 0 0 Z " fill="#EEB496" transform="translate(47,27)"/>
<path d="M0 0 C0.99 0 1.98 0 3 0 C2.76171875 1.87890625 2.76171875 1.87890625 2 4 C0.14453125 5.08984375 0.14453125 5.08984375 -2.1875 5.9375 C-7.09119435 7.92864978 -11.17583988 10.17913384 -14.13671875 14.7578125 C-16.10709988 19.87545399 -16.12107421 26.92571401 -14.2421875 32.078125 C-12.04186751 35.50854514 -9.11870732 38.3516025 -5.1875 39.5546875 C-0.14026139 40.58216107 5.11148794 41.12411432 9.625 38.4375 C11.55924086 35.00861847 11.53613536 32.88698137 11 29 C10.34 28.01 9.68 27.02 9 26 C6.48484 22.22726 6.12631265 20.44786289 7 16 C8.96378097 13.32001656 11.05595874 11.53827596 14 10 C19.1714318 9.72295901 22.54656356 11.50210548 26.48828125 14.62890625 C29.41391738 17.28239018 30.80359659 19.35131787 31.27734375 23.328125 C31.47660818 28.65247054 30.94501508 32.40577648 28 37 C27.67 37.33 27.34 37.66 27 38 C34.31656591 36.81015318 34.31656591 36.81015318 41.4375 34.8125 C44.15265174 33.95159823 45.37722832 33.99124166 48 35 C47.505 35.99 47.505 35.99 47 37 C44.5949707 37.76196289 44.5949707 37.76196289 41.42578125 38.47265625 C40.28302734 38.73240234 39.14027344 38.99214844 37.96289062 39.25976562 C36.75826172 39.52466797 35.55363281 39.78957031 34.3125 40.0625 C33.12720703 40.33126953 31.94191406 40.60003906 30.72070312 40.87695312 C1.86422188 47.36682916 1.86422188 47.36682916 -9.203125 41.33984375 C-13.99996991 37.76306591 -18.44667743 32.78318219 -19.3359375 26.703125 C-19.45177263 19.42867879 -18.14521043 14.45904922 -13.19921875 9.01953125 C-9.04083214 5.10338076 -5.61151483 3.05215903 0 2 C0 1.34 0 0.68 0 0 Z " fill="#0C0807" transform="translate(23,45)"/>
<path d="M0 0 C4.09613637 1.80992072 6.73195328 4.1359204 9 8 C10.05879658 13.5934405 9.06183253 18.42451244 6.25390625 23.3359375 C4.16391935 26.10956498 2.30480502 27.00232301 -1 28 C-4.01999374 28.21253638 -6.97942016 28.18123479 -10 28 C-9.505 27.525625 -9.01 27.05125 -8.5 26.5625 C-6.29187467 22.7902859 -6.26852315 19.27336474 -7 15 C-8.29352333 13.30225062 -9.62517293 11.63260714 -11 10 C-11.5 6.375 -11.5 6.375 -11 3 C-7.98974453 -0.73271678 -4.53333093 -0.47719273 0 0 Z " fill="#80414B" transform="translate(43,58)"/>
<path d="M0 0 C5.25534576 1.78306374 8.87768566 4.31169905 12.5 8.5 C13.94607336 12.38632215 13.25570194 15.13418958 12.5 19.1875 C12.17 19.1875 11.84 19.1875 11.5 19.1875 C11.438125 17.99125 11.37625 16.795 11.3125 15.5625 C10.72139031 10.73938759 8.94595049 8.55140405 5.5 5.1875 C1.97005387 4.01085129 -0.79455413 3.98899397 -4.5 4.1875 C-5.49 4.8475 -6.48 5.5075 -7.5 6.1875 C-8.08414702 9.56056618 -8.08414702 9.56056618 -7.5 13.1875 C-6.84 13.97125 -6.18 14.755 -5.5 15.5625 C-2.95694057 18.90026551 -3.059444 21.02168263 -3.06640625 25.1015625 C-3.5934945 27.63728435 -4.53973025 28.55480848 -6.5 30.1875 C-6.17 30.8475 -5.84 31.5075 -5.5 32.1875 C-6.49 32.1875 -7.48 32.1875 -8.5 32.1875 C-8.83 31.1975 -9.16 30.2075 -9.5 29.1875 C-9.005 28.836875 -8.51 28.48625 -8 28.125 C-5.66373692 25.10732685 -6.05938914 22.90122007 -6.5 19.1875 C-7.16 18.1975 -7.82 17.2075 -8.5 16.1875 C-11.01516 12.41476 -11.37368735 10.63536289 -10.5 6.1875 C-7.60128933 2.2316125 -4.93195441 0.26421184 0 0 Z " fill="#211916" transform="translate(40.5,54.8125)"/>
<path d="M0 0 C0.99 0 1.98 0 3 0 C2.76171875 1.87890625 2.76171875 1.87890625 2 4 C0.14453125 5.08984375 0.14453125 5.08984375 -2.1875 5.9375 C-7.10280229 7.93336319 -11.0980277 10.18894941 -14.15234375 14.703125 C-15.34627153 17.93828414 -15.18860539 20.81530897 -15.125 24.25 C-15.10695313 25.51328125 -15.08890625 26.7765625 -15.0703125 28.078125 C-15.04710937 29.04234375 -15.02390625 30.0065625 -15 31 C-15.99 31 -16.98 31 -18 31 C-20.1155851 26.7688298 -19.63736493 21.27746324 -18.38671875 16.80859375 C-15.73562801 10.84071988 -10.99480048 5.69271207 -4.92578125 3.12109375 C-3 2.5625 -3 2.5625 0 2 C0 1.34 0 0.68 0 0 Z " fill="#161413" transform="translate(23,45)"/>
<path d="M0 0 C0.33 0.66 0.66 1.32 1 2 C1.66 2.144375 2.32 2.28875 3 2.4375 C3.66 2.623125 4.32 2.80875 5 3 C5.33 3.99 5.66 4.98 6 6 C1.42676316 7.66299521 -2.1446809 8 -7 8 C-3.25 5 -3.25 5 -1 5 C-1 4.34 -1 3.68 -1 3 C-1.60328125 3.40992188 -2.2065625 3.81984375 -2.828125 4.2421875 C-3.62734375 4.78101563 -4.4265625 5.31984375 -5.25 5.875 C-6.03890625 6.40867187 -6.8278125 6.94234375 -7.640625 7.4921875 C-9.71555692 8.81822015 -11.77614972 9.94928175 -14 11 C-10.10689944 5.59989278 -5.94019945 2.92480409 0 0 Z " fill="#EF696A" transform="translate(47,43)"/>
<path d="M0 0 C4.42171235 2.33292799 8.22003373 5.21634064 10 10 C9.93268002 12.77565454 9.51227594 15.25233813 9 18 C8.67 18 8.34 18 8 18 C7.938125 16.80375 7.87625 15.6075 7.8125 14.375 C7.22139031 9.55188759 5.44595049 7.36390405 2 4 C-0.75078884 3.08307039 -2.35948913 2.89113917 -5.1875 2.9375 C-6.445625 2.958125 -7.70375 2.97875 -9 3 C-9 2.01 -9 1.02 -9 0 C-5.76866981 -1.6156651 -3.46565662 -0.7953966 0 0 Z " fill="#1D1311" transform="translate(44,56)"/>
<path d="M0 0 C0 0.66 0 1.32 0 2 C-1.75 3.2890625 -1.75 3.2890625 -4 4.625 C-4.7425 5.07101563 -5.485 5.51703125 -6.25 5.9765625 C-6.8275 6.31429687 -7.405 6.65203125 -8 7 C-5.36 7.66 -2.72 8.32 0 9 C-3.01716233 9.75429058 -5.68643783 10.24713331 -8.75 10.5625 C-9.54921875 10.64628906 -10.3484375 10.73007812 -11.171875 10.81640625 C-11.77515625 10.87699219 -12.3784375 10.93757813 -13 11 C-10.29998255 6.35596999 -5.97310565 0 0 0 Z " fill="#F5BE9F" transform="translate(46,46)"/>
<path d="M0 0 C-0.33 0.66 -0.66 1.32 -1 2 C-3.16467461 2.62669199 -5.35864524 3.15427374 -7.5625 3.625 C-8.76003906 3.88539062 -9.95757812 4.14578125 -11.19140625 4.4140625 C-12.11824219 4.60742188 -13.04507813 4.80078125 -14 5 C-14.33 4.01 -14.66 3.02 -15 2 C-13.25364835 1.46706165 -11.50272348 0.94909337 -9.75 0.4375 C-8.77546875 0.14746094 -7.8009375 -0.14257812 -6.796875 -0.44140625 C-4.03756068 -0.99249836 -2.6087176 -0.93789609 0 0 Z " fill="#100D0B" transform="translate(71,80)"/>
<path d="M0 0 C0.33 1.32 0.66 2.64 1 4 C-3.75 8 -3.75 8 -6 8 C-6.66 8.66 -7.32 9.32 -8 10 C-7.44449305 6.40094092 -6.25112752 5.00090201 -3.4375 2.75 C-2.79683594 2.22921875 -2.15617187 1.7084375 -1.49609375 1.171875 C-1.00238281 0.78515625 -0.50867187 0.3984375 0 0 Z " fill="#F2BB9C" transform="translate(36,46)"/>
<path d="M0 0 C4.00754167 1.33584722 5.37476236 3.76893828 8 7 C8.66 7.33 9.32 7.66 10 8 C9.67 8.99 9.34 9.98 9 11 C7.6781638 9.92807816 6.36782073 8.84197305 5.0625 7.75 C4.33160156 7.14671875 3.60070312 6.5434375 2.84765625 5.921875 C0.89673666 3.89258866 0.38268221 2.745593 0 0 Z " fill="#070606" transform="translate(6,76)"/>
<path d="M0 0 C0.66 0.33 1.32 0.66 2 1 C1.34 1.66 0.68 2.32 0 3 C-0.31404687 7.23963281 -0.32617985 10.36534398 2 14 C1.01 14 0.02 14 -1 14 C-3.3297964 10.35969312 -3.3862557 7.24881273 -3 3 C-1.5 1.0625 -1.5 1.0625 0 0 Z " fill="#0F0C0A" transform="translate(33,58)"/>
<path d="M0 0 C0.33 0 0.66 0 1 0 C1.29341888 5.67276511 1.00559652 8.99067246 -2 14 C-2.99 14 -3.98 14 -5 14 C-4.72285156 13.49210937 -4.44570313 12.98421875 -4.16015625 12.4609375 C-1.9665317 8.2922702 -0.47586845 4.75868447 0 0 Z " fill="#140B0A" transform="translate(53,68)"/>
<path d="M0 0 C0.66 0.66 1.32 1.32 2 2 C-1.63 2.33 -5.26 2.66 -9 3 C-9 2.01 -9 1.02 -9 0 C-5.88135455 -1.55932272 -3.33704665 -0.65549131 0 0 Z " fill="#2F211D" transform="translate(44,56)"/>
<path d="M0 0 C0 0.66 0 1.32 0 2 C-4.57323684 3.66299521 -8.1446809 4 -13 4 C-8.66957446 0.44286474 -5.53947792 -0.15387439 0 0 Z " fill="#F38079" transform="translate(53,47)"/>
<path d="M0 0 C0.99 0 1.98 0 3 0 C2.875 1.875 2.875 1.875 2 4 C-1.0625 5.25 -1.0625 5.25 -4 6 C-3.34 4.68 -2.68 3.36 -2 2 C-1.34 2 -0.68 2 0 2 C0 1.34 0 0.68 0 0 Z " fill="#16100E" transform="translate(23,45)"/>
<path d="M0 0 C1.65 0.33 3.3 0.66 5 1 C4.67 1.66 4.34 2.32 4 3 C1.67843403 3.40729228 -0.6568787 3.74438677 -3 4 C-2.01 2.68 -1.02 1.36 0 0 Z " fill="#D6A88D" transform="translate(52,80)"/>
</svg>
